<svg xmlns="http://www.w3.org/2000/svg" width="276" height="96" viewBox="0 0 276 96" role="img" aria-label="Axis">
  <title>Axis</title>
  <defs>
    <linearGradient id="g" x1="0" y1="0" x2="1" y2="1">
      <stop offset="0%" stop-color="#00FFCC"/>
      <stop offset="55%" stop-color="#1FB6FF"/>
      <stop offset="100%" stop-color="#8A2BE2"/>
    </linearGradient>
    <filter id="glow" x="-30%" y="-30%" width="160%" height="160%">
      <feGaussianBlur stdDeviation="3" result="b"/>
      <feMerge><feMergeNode in="b"/><feMergeNode in="SourceGraphic"/></feMerge>
    </filter>
  </defs>
  <g transform="translate(36,8)" fill="url(#g)" filter="url(#glow)">
    <path d="M58 0V600Q58 633 74.0 660.5Q90 688 117.5 704.0Q145 720 178 720H658Q691 720 718.5 704.0Q746 688 762.0 660.5Q778 633 778 600V0H697V263H139V0H58ZM139 344H697V600Q697 616 685.5 627.5Q674 639 658 639H178Q162 639 150.5 627.5Q139 616 139 600V344Z" transform="translate(0.00,70) scale(0.06400,-0.06400)"/>
    <path d="M46 0V1L348 360L46 719V720H150L401 423L651 720H755V719L453 360L756 1V0H651L401 297L150 0Z" transform="translate(61.50,70) scale(0.06400,-0.06400)"/>
    <path d="M66 0V720H148V0Z" transform="translate(121.47,70) scale(0.06400,-0.06400)"/>
    <path d="M171 0Q138 0 110.5 16.0Q83 32 67.0 59.5Q51 87 51 120V148H132V120Q132 104 143.5 92.5Q155 81 171 81H651Q667 81 678.5 92.5Q690 104 690 120V281Q690 297 678.5 308.0Q667 319 651 319H171Q138 319 110.5 335.5Q83 352 67.0 379.0Q51 406 51 439V600Q51 633 67.0 660.5Q83 688 110.5 704.0Q138 720 171 720H651Q684 720 711.5 704.0Q739 688 755.0 660.5Q771 633 771 600V572H690V600Q690 616 678.5 627.5Q667 639 651 639H171Q155 639 143.5 627.5Q132 616 132 600V439Q132 423 143.5 412.0Q155 401 171 401H651Q684 401 711.5 384.5Q739 368 755.0 341.0Q771 314 771 281V120Q771 87 755.0 59.5Q739 32 711.5 16.0Q684 0 651 0Z" transform="translate(143.17,70) scale(0.06400,-0.06400)"/>
  </g>
</svg>